<?xml version="1.0" encoding="UTF-8" standalone="no"?>
<!-- Generator: Adobe Illustrator 16.0.0, SVG Export Plug-In . SVG Version: 6.00 Build 0)  -->

<svg
   version="1.1"
   id="Layer_1"
   x="0px"
   y="0px"
   width="611.834px"
   height="706.506px"
   viewBox="0.083 42.123 611.834 706.506"
   enable-background="new 0.083 42.123 611.834 706.506"
   xml:space="preserve"
   sodipodi:docname="roam.svg"
   inkscape:version="1.3 (1:1.3+202307231459+0e150ed6c4)"
   xmlns:inkscape="http://www.inkscape.org/namespaces/inkscape"
   xmlns:sodipodi="http://sodipodi.sourceforge.net/DTD/sodipodi-0.dtd"
   xmlns="http://www.w3.org/2000/svg"
   xmlns:svg="http://www.w3.org/2000/svg"
   xmlns:rdf="http://www.w3.org/1999/02/22-rdf-syntax-ns#"
   xmlns:cc="http://creativecommons.org/ns#"
   xmlns:dc="http://purl.org/dc/elements/1.1/"><metadata
   id="metadata57"><rdf:RDF><cc:Work
       rdf:about=""><dc:format>image/svg+xml</dc:format><dc:type
         rdf:resource="http://purl.org/dc/dcmitype/StillImage" /></cc:Work></rdf:RDF></metadata><defs
   id="defs55" /><sodipodi:namedview
   pagecolor="#ffffff"
   bordercolor="#666666"
   borderopacity="1"
   objecttolerance="10"
   gridtolerance="10"
   guidetolerance="10"
   inkscape:pageopacity="0"
   inkscape:pageshadow="2"
   inkscape:window-width="1872"
   inkscape:window-height="1051"
   id="namedview53"
   showgrid="false"
   showguides="true"
   inkscape:zoom="0.93972927"
   inkscape:cx="376.70424"
   inkscape:cy="333.60672"
   inkscape:window-x="48"
   inkscape:window-y="0"
   inkscape:window-maximized="1"
   inkscape:current-layer="Layer_1"
   inkscape:pagecheckerboard="0"
   inkscape:showpageshadow="2"
   inkscape:deskcolor="#d1d1d1"><inkscape:grid
     type="xygrid"
     id="grid888"
     originx="0"
     originy="0"
     spacingy="1"
     spacingx="1"
     units="px"
     visible="false" /></sodipodi:namedview>&#10;<polygon
   id="fill"
   points="611.917,572.024 306,748.629 0.083,572.021 0.083,218.728 306,42.123 611.917,218.728 "
   fill="#1FA67A"
   style="fill:#1f9da6;fill-opacity:1" />&#10;<linearGradient
   id="gradient_1_"
   gradientUnits="userSpaceOnUse"
   x1="305.6709"
   y1="404.7256"
   x2="305.6709"
   y2="134.4175"
   gradientTransform="matrix(1 0 0 1 0 -80)">&#10;	<stop
   offset="0"
   style="stop-color:#FFFFFF;stop-opacity:0"
   id="stop3" />&#10;	<stop
   offset="1"
   style="stop-color:#FFFFFF"
   id="stop5" />&#10;</linearGradient>&#10;<path
   id="gradient"
   opacity="0.2"
   fill="url(#gradient_1_)"
   d="M305.591,54.417L59.22,197.048  c36.979,74.535,133.292,127.677,246.28,127.677c113.336,0,209.895-53.47,246.621-128.366L305.591,54.417z" />&#10;<g
   id="img">&#10;</g>&#10;<path
   id="outline"
   d="M587.52,204.656L356.209,71.099L306,42.123l-50.209,28.976L24.48,204.656L0.083,218.728  v353.293l24.396,14.071l234.142,135.225L306,748.629l47.378-27.312L587.52,586.095l24.397-14.07V218.728L587.52,204.656z   M587.52,558.783L306,721.317L24.48,558.783v-325.15L306,71.099l0,0l281.52,162.534V558.783z"
   fill="#1B926C"
   style="fill:#166f77;fill-opacity:1" />&#10;<g
   id="text"
   display="none">&#10;	<path
   display="inline"
   fill="#FFFFFF"
   d="M75.935,561.09v-60.881h-9.782v-9.781h9.782v-3.357c0-9.928,2.336-18.98,8.322-24.674   c4.818-4.672,11.242-6.57,17.082-6.57c4.672,0,8.468,1.022,10.95,2.045l-1.606,9.928c-2.044-0.877-4.526-1.606-8.322-1.606   c-10.804,0-13.724,9.636-13.724,20.439v3.796h17.082v9.781H88.782v60.881H75.935z"
   id="path11" />&#10;	<path
   display="inline"
   fill="#FFFFFF"
   d="M144.408,562.695c-18.979,0-33.871-14.016-33.871-36.353   c0-23.651,15.622-37.521,35.039-37.521c20.293,0,34.017,14.745,34.017,36.207c0,26.279-18.25,37.666-35.039,37.666H144.408z    M144.846,553.061c12.264,0,21.461-11.534,21.461-27.594c0-11.972-5.986-27.01-21.169-27.01c-15.038,0-21.607,14.016-21.607,27.447   c0,15.477,8.76,27.156,21.169,27.156H144.846z"
   id="path13" />&#10;	<path
   display="inline"
   fill="#FFFFFF"
   d="M195.946,512.473c0-8.321-0.146-15.475-0.584-22.045h11.242l0.584,13.869h0.438   c3.212-9.489,11.096-15.475,19.709-15.475c1.314,0,2.336,0.146,3.504,0.438v11.972c-1.46-0.146-2.774-0.292-4.526-0.292   c-9.052,0-15.476,6.861-17.228,16.352c-0.292,1.898-0.438,3.941-0.438,6.132v37.667H195.8L195.946,512.473z"
   id="path15" />&#10;	<path
   display="inline"
   fill="#FFFFFF"
   d="M249.965,527.949c0.292,17.373,11.242,24.527,24.089,24.527   c9.198,0,14.892-1.606,19.564-3.504l2.336,9.051c-4.526,2.045-12.41,4.526-23.652,4.526c-21.607,0-34.747-14.454-34.747-35.623   c0-21.462,12.702-38.251,33.287-38.251c23.067,0,29.053,20.293,29.053,33.287c0,2.628-0.146,4.672-0.438,6.132L249.965,527.949z    M287.486,518.751c0.146-8.03-3.357-20.878-17.665-20.878c-13.14,0-18.688,11.973-19.709,20.878H287.486z"
   id="path17" />&#10;	<path
   display="inline"
   fill="#FFFFFF"
   d="M366.179,558.607c-3.357,1.606-10.803,4.088-20.293,4.088   c-21.316,0-35.186-14.453-35.186-36.207c0-21.753,14.893-37.666,37.959-37.666c7.592,0,14.309,1.897,17.813,3.795l-2.92,9.782   c-3.066-1.606-7.885-3.358-14.893-3.358c-16.205,0-24.965,12.118-24.965,26.863c0,16.352,10.512,26.426,24.527,26.426   c7.299,0,12.117-1.752,15.768-3.357L366.179,558.607z"
   id="path19" />&#10;	<path
   display="inline"
   fill="#FFFFFF"
   d="M431.147,544.154c0,6.132,0.293,12.117,1.021,16.936h-11.533l-1.168-8.906h-0.438   c-3.797,5.549-11.533,10.512-21.607,10.512c-14.309,0-21.607-10.073-21.607-20.293c0-17.082,15.184-26.426,42.484-26.279v-1.46   c0-5.84-1.605-16.497-16.059-16.352c-6.717,0-13.578,1.897-18.543,5.256l-2.92-8.614c5.84-3.649,14.455-6.131,23.359-6.131   c21.754,0,27.01,14.745,27.01,28.906V544.154z M418.593,525.029c-14.016-0.293-29.93,2.189-29.93,15.913   c0,8.468,5.547,12.264,11.971,12.264c9.344,0,15.33-5.84,17.375-11.825c0.438-1.314,0.584-2.774,0.584-4.088V525.029z"
   id="path21" />&#10;	<path
   display="inline"
   fill="#FFFFFF"
   d="M449.981,548.096c3.943,2.336,10.658,4.965,17.082,4.965   c9.197,0,13.578-4.526,13.578-10.512c0-6.133-3.65-9.49-12.994-12.994c-12.848-4.672-18.834-11.533-18.834-20.002   c0-11.387,9.344-20.73,24.383-20.73c7.152,0,13.432,1.897,17.227,4.379l-3.066,9.198c-2.773-1.606-7.883-4.088-14.453-4.088   c-7.592,0-11.68,4.38-11.68,9.636c0,5.986,4.088,8.613,13.285,12.117c12.119,4.526,18.543,10.658,18.543,21.316   c0,12.555-9.783,21.314-26.279,21.314c-7.738,0-14.893-2.043-19.855-4.963L449.981,548.096z"
   id="path23" />&#10;	<path
   display="inline"
   fill="#FFFFFF"
   d="M525.024,473.492v16.936h18.396v9.781h-18.396v38.105c0,8.76,2.482,13.724,9.637,13.724   c3.504,0,5.547-0.292,7.445-0.876l0.584,9.781c-2.482,0.877-6.424,1.752-11.387,1.752c-5.986,0-10.805-2.043-13.871-5.401   c-3.504-3.942-4.963-10.22-4.963-18.542v-38.543h-10.949v-9.781h10.949v-12.994L525.024,473.492z"
   id="path25" />&#10;</g>&#10;&#10;&#10;&#10;&#10;<text
   xml:space="preserve"
   style="font-style:normal;font-variant:normal;font-weight:normal;font-stretch:normal;font-size:40px;line-height:1.25;font-family:sans-serif;-inkscape-font-specification:sans-serif;letter-spacing:0px;word-spacing:0px;fill:#000000;fill-opacity:1;stroke:none"
   x="208.89143"
   y="473.2114"
   id="text866" />&#10;&#10;<text
   xml:space="preserve"
   style="font-style:normal;font-variant:normal;font-weight:normal;font-stretch:normal;font-size:40px;line-height:1.25;font-family:sans-serif;-inkscape-font-specification:sans-serif;letter-spacing:0px;word-spacing:0px;fill:#000000;fill-opacity:1;stroke:none"
   x="199.91042"
   y="464.97879"
   id="text870" />&#10;&#10;<g
   id="g886"
   transform="matrix(1.933181,0,0,1.933181,276.39414,160.7054)">&#10;&#10;<text
   xml:space="preserve"
   style="font-weight:300;font-size:48.2797px;line-height:30.5;font-family:Ubuntu;-inkscape-font-specification:'Ubuntu Light';letter-spacing:0px;word-spacing:2.09px;fill:#ffffff;fill-opacity:1"
   x="-111.80561"
   y="199.8036"
   id="text2294"><tspan
     sodipodi:role="line"
     id="tspan2292"
     x="-111.80561"
     y="199.8036"
     style="font-size:48.2797px">randomifyR</tspan></text></g><path
   style="fill:#ffffff;stroke-width:11.2493;fill-opacity:1"
   d="m 339.19998,453.39524 c -10.92467,-1.60359 -18.76679,-7.23783 -23.52403,-16.9011 -2.80816,-5.70418 -3.14161,-7.2422 -3.14295,-14.49982 -0.002,-6.94533 0.38024,-8.89552 2.63729,-13.4921 2.92799,-5.96226 8.81983,-11.91145 15.12494,-15.27209 5.82413,-3.10437 20.10289,-3.1992 26.64155,-0.1765 10.00887,4.6264 17.13612,14.68857 18.45531,26.05511 1.80766,15.57427 -9.69973,31.25841 -24.81545,33.82259 -2.06638,0.35098 -4.40005,0.75595 -5.18581,0.89994 -0.78633,0.14495 -3.57166,-0.0562 -6.19085,-0.43648 z m -68.83291,-25.28118 c -6.31862,-1.70111 -10.42687,-3.76333 -13.87646,-6.96592 -3.52678,-3.27399 -4.52923,-5.29618 -9.07227,-18.30152 -2.08989,-5.98251 -6.65117,-18.80641 -10.13619,-28.49757 -3.48492,-9.69108 -8.63285,-24.04916 -11.43979,-31.90681 -10.63084,-29.75998 -11.66903,-32.52486 -13.42248,-35.74507 -1.44418,-2.65217 -1.79964,-5.30329 -1.79964,-13.41977 0,-10.08988 0.0119,-10.13542 4.27069,-18.57264 3.29358,-6.52304 6.01715,-10.219 11.90548,-16.15616 8.65592,-8.7278 13.35116,-12.13904 23.99371,-17.43242 14.22857,-7.07695 29.4865,-9.87592 42.17292,-7.73604 14.08862,2.3764 18.74956,5.66718 31.25049,22.06429 5.32823,6.989 10.94244,14.20736 12.47583,16.04078 3.86672,4.62325 18.34415,22.99293 28.8993,36.66908 4.8516,6.28612 9.55675,12.28651 10.45589,13.33417 0.89884,1.0473 4.64441,5.74413 8.32271,10.43654 7.489,9.55372 9.30927,14.8263 8.17354,23.67658 -1.04843,8.17107 -7.89129,20.99562 -15.72016,29.46245 -3.75388,4.05976 -7.32532,7.37932 -7.93638,7.37673 -0.61084,-0.002 -2.3772,-1.01807 -3.9249,-2.25616 l -2.81378,-2.25145 6.78952,-7.3684 c 10.55637,-11.45643 15.90982,-24.31004 13.63823,-32.74568 -1.18825,-4.41299 -5.92761,-9.39992 -11.13783,-11.71966 -2.17642,-0.96857 -7.15368,-2.03206 -11.06036,-2.36235 -38.53975,-3.2578 -98.70131,35.58116 -101.4114,65.46905 -0.63108,6.95525 0.0563,9.57926 3.57145,13.57916 4.64608,5.29168 11.28354,7.62425 21.89941,7.69601 4.97648,0.0337 11.72686,-0.30261 15.00097,-0.74695 l 5.95268,-0.8077 v 4.23997 4.23989 l -6.61245,1.0923 c -8.84096,1.46004 -22.23014,1.27872 -28.40873,-0.38473 z m -150.22888,-4.86308 c -25.445648,-3.02549 -41.764149,-9.11937 -48.700135,-18.18612 -2.535612,-3.31459 -2.725592,-4.1528 -2.644605,-11.66689 0.04494,-4.4527 1.692671,-19.02508 3.655025,-32.38309 3.82576,-26.04366 4.930351,-33.86667 8.135829,-57.62278 2.370483,-17.56819 3.579314,-21.02419 9.149646,-26.15872 9.151455,-8.43543 23.02626,-12.72264 41.35724,-12.77914 16.02569,-0.0449 27.10269,2.72438 37.53676,9.39895 9.51794,6.08858 10.18156,7.81917 14.42927,37.63463 1.30607,9.16729 4.54914,31.80069 7.20678,50.29651 2.92596,20.36207 4.59423,34.89754 4.22885,36.8449 -1.5398,8.20773 -15.37636,17.51432 -31.642,21.2826 -13.964,3.23509 -31.8366,4.63227 -42.71266,3.33915 z m 348.59397,0 c -19.91481,-2.36786 -32.07027,-5.81466 -40.95532,-11.61326 -8.47671,-5.53196 -11.38377,-10.18682 -11.09396,-17.76356 0.20358,-5.33252 14.21372,-103.05564 15.37568,-107.25053 4.28497,-15.47073 33.07325,-25.66634 60.59709,-21.46077 13.66253,2.08752 21.38226,5.46414 28.60446,12.5115 6.93643,6.76872 6.26215,4.29013 11.79007,43.33791 2.1135,14.92955 5.4034,38.16064 7.31081,51.62473 3.44984,24.35084 3.45882,24.5007 1.71464,28.36866 -4.94533,10.96664 -23.37138,19.36707 -47.96646,21.86756 -9.43663,0.95959 -19.25512,1.10582 -25.37701,0.378 z"
   id="path2" /></svg>
